# xmcd
#
# Track frame offsets: 
#        180
#        10549
#        20415
#        30817
#        42392
#        53140
#        64808
#        76459
#        88667
#        100115
#        109273
#        121733
#        132100
#        144302
#        157274
#        170437
#        183165
#        192118
#        204850
#        217121
#        228314
#        239502
#        251749
#        263808
#
# Disc length: 3679 seconds
#
# Revision: 1
# Processed by: cddbd v1.5.2PL0 Copyright (c) Steve Scherf et al.
# Submitted via: ExactAudioCopy v1.0b1
#
DISCID=3e0e5d18
DTITLE=Little Anthony and The Imperials - We Are The Imperials - Shades 
DTITLE=Of The 40's
DYEAR=1998
DGENRE=R&B
TTITLE0=Tears On My Pillow (mono)
TTITLE1=Over The Rainbow (mono)
TTITLE2=So Much (mono)
TTITLE3=The Diary (mono)
TTITLE4=Oh Yeah (mono)
TTITLE5=Love Is A Many-Splendoured Thing (mono)
TTITLE6=When You Wish Upon A Star (mono)
TTITLE7=Wishful Thinking (mono)
TTITLE8=Cha Cha Henry (mono)
TTITLE9=Travelling Stranger (mono)
TTITLE10=What Did I Do (mono)
TTITLE11=Two People In The World (mono)
TTITLE12=This Love Of Mine (stereo)
TTITLE13=Dont Get Around Much Anymore (stereo)
TTITLE14=They Say It's Wonderful (stereo)
TTITLE15=If You Are But A Dream (stereo)
TTITLE16=Undecided (stereo)
TTITLE17=All Or Nothing At All (stereo)
TTITLE18=I'll Never Smile Again (stereo)
TTITLE19=Dream (stereo)
TTITLE20=A Lovely Way To Spend An Evening (stereo)
TTITLE21=I Couldn't Sleep A Wink Last Night (stereo)
TTITLE22=Ooh! Look-A There, Ain't She Pretty (stereo)
TTITLE23=I've Got A Crush On You (stereo)
EXTD=
EXTT0=
EXTT1=
EXTT2=
EXTT3=
EXTT4=
EXTT5=
EXTT6=
EXTT7=
EXTT8=
EXTT9=
EXTT10=
EXTT11=
EXTT12=
EXTT13=
EXTT14=
EXTT15=
EXTT16=
EXTT17=
EXTT18=
EXTT19=
EXTT20=
EXTT21=
EXTT22=
EXTT23=
PLAYORDER=
